<?xml version="1.0" encoding="UTF-8"?>
<svg id="Calque_1" data-name="Calque 1" xmlns="http://www.w3.org/2000/svg" viewBox="0 0 332 332">
  <defs>
    <style>
      .cls-1, .cls-2 {
        stroke-width: 0px;
      }

      .cls-2 {
        fill: #fff;
      }
    </style>
  </defs>
  <path class="cls-1" d="M331.79,328.96c.92,3.44-1.32,3.02-3.5,3.02-59.79-.03-119.59-.02-179.38-.02h-78.95c.54-1.39.97-2.82,1.63-4.15,30.39-60.84,60.79-121.67,91.21-182.49.78-1.55,1.67-3.04,3.26-5.9,22.24,44.49,43.85,87.72,65.75,131.55-2.65,0-4.31.02-5.96,0-7.13-.1-14.95,2.06-19.58-6.17-.42-.76-1.62-1.14-2.52-1.56-7.7-3.54-15.72-4.16-23.91-2.31-5.44,1.23-10.56,3.09-13.48,8.5-.42.77-1.77,1.43-2.72,1.46-4.43.15-8.86.07-13.95.07,4.4-10.21,8.44-19.84,12.77-29.33.46-1.02,2.64-1.67,4.06-1.75,4.4-.22,8.83-.08,14.06-.08-5.01-10.03-9.63-19.27-14.75-29.52-15.1,30.23-29.71,59.48-44.6,89.3h159.76c-38.41-76.87-76.53-153.14-114.99-230.08-1.17,2.16-1.91,3.42-2.56,4.72-34.18,68.4-68.37,136.79-102.52,205.2-8.72,17.48-17.3,35.03-25.94,52.54H0c0-1,0-2,0-3,.64-.94,1.41-1.81,1.92-2.82,15.98-31.92,31.94-63.85,47.9-95.78C88.18,153.58,126.53,76.79,164.89,0c.67,0,1.33,0,2,0,2.23,4.45,4.47,8.9,6.69,13.35,46.74,93.58,93.46,187.16,140.24,280.72,5.85,11.7,11.97,23.26,17.96,34.89Z"/>
  <path class="cls-2" d="M164.89,0c-38.36,76.79-76.72,153.58-115.08,230.37-15.95,31.93-31.91,63.86-47.9,95.78-.5,1.01-1.27,1.88-1.92,2.82C0,219.31,0,109.65,0,0,54.96,0,109.93,0,164.89,0Z"/>
  <path class="cls-2" d="M331.79,328.96c-5.99-11.63-12.11-23.19-17.96-34.89C267.05,200.51,220.32,106.93,173.58,13.35c-2.22-4.45-4.46-8.9-6.69-13.35,54.96,0,109.93,0,164.89,0v328.96Z"/>
  <path class="cls-2" d="M34.98,331.96c8.64-17.52,17.22-35.06,25.94-52.54,34.15-68.41,68.34-136.8,102.52-205.2.65-1.3,1.39-2.56,2.56-4.72,38.46,76.95,76.57,153.22,114.99,230.08H121.23c14.89-29.82,29.5-59.07,44.6-89.3,5.12,10.25,9.74,19.49,14.75,29.52-5.24,0-9.66-.14-14.06.08-1.42.07-3.6.73-4.06,1.75-4.34,9.49-8.38,19.12-12.77,29.33,5.08,0,9.52.08,13.95-.07.94-.03,2.3-.69,2.72-1.46,2.93-5.41,8.04-7.27,13.48-8.5,8.19-1.85,16.22-1.24,23.91,2.31.9.42,2.1.8,2.52,1.56,4.63,8.23,12.45,6.07,19.58,6.17,1.65.02,3.31,0,5.96,0-21.91-43.83-43.51-87.06-65.75-131.55-1.58,2.86-2.48,4.35-3.26,5.9-30.41,60.83-60.82,121.66-91.21,182.49-.66,1.32-1.09,2.76-1.63,4.15h-34.98Z"/>
</svg>