<svg width="87" height="79" viewBox="0 0 87 79" fill="none" xmlns="http://www.w3.org/2000/svg">
<path d="M86.4451 77.7867C86.6834 78.5949 86.1031 78.4962 85.5384 78.4962C70.0508 78.4891 54.5605 78.4915 39.0728 78.4915H18.6221C18.7619 78.1649 18.8733 77.829 19.0443 77.5165C26.9163 63.2226 34.791 48.931 42.6708 34.6418C42.8729 34.2777 43.1034 33.9276 43.5153 33.2557C49.2762 43.7083 54.8739 53.8648 60.5468 64.1624C59.8603 64.1624 59.4303 64.1671 59.0029 64.1624C57.156 64.1389 55.1304 64.6463 53.931 62.7128C53.8222 62.5342 53.5114 62.4449 53.2783 62.3462C51.2837 61.5146 49.2063 61.3689 47.0848 61.8035C45.6756 62.0925 44.3494 62.5295 43.593 63.8005C43.4842 63.9814 43.1345 64.1365 42.8884 64.1436C41.7409 64.1788 40.5934 64.16 39.2749 64.16C40.4146 61.7612 41.4611 59.4987 42.5827 57.2691C42.7019 57.0295 43.2666 56.8768 43.6344 56.858C44.7742 56.8063 45.9217 56.8392 47.2764 56.8392C45.9787 54.4827 44.7819 52.3119 43.4557 49.9037C39.5443 57.006 35.7598 63.8781 31.9028 70.8841H73.2861C63.3366 52.824 53.4622 34.905 43.4997 16.8285C43.1967 17.336 43.005 17.632 42.8366 17.9374C33.9828 34.0075 25.1264 50.0752 16.2804 66.1476C14.0216 70.2544 11.7991 74.3777 9.56103 78.4915H0.5C0.5 78.2566 0.5 78.0216 0.5 77.7867C0.665782 77.5658 0.865239 77.3614 0.997346 77.1241C5.13672 69.6248 9.27091 62.1231 13.4051 54.6213C23.3417 36.5825 33.2756 18.5412 43.2122 0.5C43.3857 0.5 43.5567 0.5 43.7303 0.5C44.3079 1.54549 44.8881 2.59099 45.4632 3.63648C57.5705 25.6224 69.6726 47.6083 81.7902 69.5895C83.3056 72.3384 84.8908 75.0543 86.4425 77.7867H86.4451Z" fill="#DED7C4"/>
</svg>
