<svg width="997" height="1080" viewBox="0 0 997 1080" fill="none" xmlns="http://www.w3.org/2000/svg">
<g clip-path="url(#clip0_62_105)">
<circle cx="175" cy="175" r="174.5" transform="matrix(-1 0 0 1 850 365)" stroke="#DED7C4"/>
<line y1="-0.5" x2="783.077" y2="-0.5" transform="matrix(0.450786 -0.892632 -0.892632 -0.450786 499 889)" stroke="#DED7C4"/>
<path d="M718 890C718 769.602 620.398 672 500 672" stroke="#DED7C4"/>
<path d="M501 324C695.485 324 867.06 422.092 968.949 571.5" stroke="#DED7C4"/>
<path d="M420.5 431L497 198V537L420.5 431Z" fill="#1A1A1A"/>
<path d="M177 436L493.5 540.5L370.5 578L177 436Z" fill="#1A1A1A"/>
<path d="M420.5 431L497 198V537L420.5 431Z" stroke="#DED7C4"/>
<path d="M177 436L493.5 540.5L370.5 578L177 436Z" stroke="#DED7C4"/>
<path d="M497 671.5V543.5L300.5 812L497 671.5Z" fill="#1A1A1A" stroke="#DED7C4"/>
<line y1="-1.5" x2="253.618" y2="-1.5" transform="matrix(-0.311492 0.950249 0.950249 0.311492 499 192)" stroke="#DED7C4" stroke-width="3"/>
<line y1="-1.5" x2="251.002" y2="-1.5" transform="matrix(-0.999992 0.00398403 0.00398403 0.999992 419 432)" stroke="#DED7C4" stroke-width="3"/>
<line y1="-1.5" x2="250.416" y2="-1.5" transform="matrix(-0.806659 -0.591017 -0.591017 0.806659 370 581)" stroke="#DED7C4" stroke-width="3"/>
<line y1="-1.5" x2="254.568" y2="-1.5" transform="matrix(-0.310329 0.950629 0.950629 0.310329 372 580)" stroke="#DED7C4" stroke-width="3"/>
<line y1="-1.5" x2="254.466" y2="-1.5" transform="matrix(-0.813468 0.58161 0.58161 0.813468 500 673)" stroke="#DED7C4" stroke-width="3"/>
<line y1="-1.5" x2="481" y2="-1.5" transform="matrix(0 -1 -1 0 497 673)" stroke="#DED7C4" stroke-width="3"/>
<line y1="-1.5" x2="136.825" y2="-1.5" transform="matrix(0.58469 0.811257 0.811257 -0.58469 420 430)" stroke="#DED7C4" stroke-width="3"/>
<line y1="-1.5" x2="133.81" y2="-1.5" transform="matrix(-0.956583 0.291459 0.291459 0.956583 499 542)" stroke="#DED7C4" stroke-width="3"/>
<line y1="-1.5" x2="347.536" y2="-1.5" transform="matrix(-0.949543 -0.313637 -0.313637 0.949543 498 542)" stroke="#DED7C4" stroke-width="3"/>
<line y1="-1.5" x2="348.421" y2="-1.5" transform="matrix(-0.591239 0.806496 0.806496 0.591239 499 541)" stroke="#DED7C4" stroke-width="3"/>
<line x1="500.5" x2="500.5" y2="1080" stroke="#DED7C4"/>
<path d="M997.006 539.99H499.5" stroke="#DED7C4"/>
<path d="M500 908C296.207 908 131 743.017 131 539.5C131 335.983 296.207 171 500 171" stroke="#DED7C4" stroke-width="2"/>
<circle cx="500" cy="540" r="349" stroke="#DED7C4" stroke-width="2"/>
<line y1="-0.5" x2="438.001" y2="-0.5" transform="matrix(0 1 1 0 675.526 308)" stroke="#DED7C4"/>
</g>
<defs>
<clipPath id="clip0_62_105">
<rect width="997" height="1080" fill="white"/>
</clipPath>
</defs>
</svg>
