<svg width="1167" height="848" viewBox="0 0 1167 848" fill="none" xmlns="http://www.w3.org/2000/svg">
<circle cx="175" cy="175" r="174.5" transform="matrix(-1 0 0 1 933 252)" stroke="#DED7C4"/>
<line y1="-0.5" x2="783.077" y2="-0.5" transform="matrix(0.450786 -0.892632 -0.892632 -0.450786 582 776)" stroke="#DED7C4"/>
<path d="M801 777.001C801 656.603 703.398 559.001 583 559.001" stroke="#DED7C4"/>
<path d="M584 211C778.485 211 950.06 309.092 1051.95 458.5" stroke="#DED7C4"/>
<path d="M503.5 318L580 85.0002V424L503.5 318Z" fill="#1A1A1A"/>
<path d="M260 323L576.5 427.5L453.5 465L260 323Z" fill="#1A1A1A"/>
<path d="M503.5 318L580 85.0002V424L503.5 318Z" stroke="#DED7C4"/>
<path d="M260 323L576.5 427.5L453.5 465L260 323Z" stroke="#DED7C4"/>
<path d="M580 558.5V430.5L383.5 699L580 558.5Z" fill="#1A1A1A" stroke="#DED7C4"/>
<line y1="-1.5" x2="253.618" y2="-1.5" transform="matrix(-0.311492 0.950249 0.950249 0.311492 582 79.0002)" stroke="#DED7C4" stroke-width="3"/>
<line y1="-1.5" x2="251.002" y2="-1.5" transform="matrix(-0.999992 0.00398403 0.00398403 0.999992 502 319)" stroke="#DED7C4" stroke-width="3"/>
<line y1="-1.5" x2="250.416" y2="-1.5" transform="matrix(-0.806659 -0.591017 -0.591017 0.806659 453 468)" stroke="#DED7C4" stroke-width="3"/>
<line y1="-1.5" x2="254.568" y2="-1.5" transform="matrix(-0.310329 0.950629 0.950629 0.310329 455 467)" stroke="#DED7C4" stroke-width="3"/>
<line y1="-1.5" x2="254.466" y2="-1.5" transform="matrix(-0.813468 0.58161 0.58161 0.813468 583 560)" stroke="#DED7C4" stroke-width="3"/>
<line y1="-1.5" x2="481" y2="-1.5" transform="matrix(0 -1 -1 0 580 560)" stroke="#DED7C4" stroke-width="3"/>
<line y1="-1.5" x2="136.825" y2="-1.5" transform="matrix(0.58469 0.811257 0.811257 -0.58469 503 317)" stroke="#DED7C4" stroke-width="3"/>
<line y1="-1.5" x2="133.81" y2="-1.5" transform="matrix(-0.956583 0.291459 0.291459 0.956583 582 429)" stroke="#DED7C4" stroke-width="3"/>
<line y1="-1.5" x2="347.536" y2="-1.5" transform="matrix(-0.949543 -0.313637 -0.313637 0.949543 581 429)" stroke="#DED7C4" stroke-width="3"/>
<line y1="-1.5" x2="348.421" y2="-1.5" transform="matrix(-0.591239 0.806496 0.806496 0.591239 582 428)" stroke="#DED7C4" stroke-width="3"/>
<line x1="583.5" y1="848" x2="583.505" y2="5.80945e-05" stroke="#DED7C4"/>
<path d="M1079.01 426.99H581.5" stroke="#DED7C4"/>
<path d="M582 795C378.207 795 213 630.017 213 426.5C213 222.983 378.207 58.0002 582 58.0002" stroke="#DED7C4" stroke-width="2"/>
<circle cx="582" cy="427" r="349" stroke="#DED7C4" stroke-width="2"/>
<line y1="-0.5" x2="438.001" y2="-0.5" transform="matrix(0 1 1 0 757.526 195)" stroke="#DED7C4"/>
</svg>
