<svg width="1501" height="247" viewBox="0 0 1501 247" fill="none" xmlns="http://www.w3.org/2000/svg">
<path d="M734.194 170.564L749.098 125.169V191.215L734.194 170.564Z" fill="#1A1A1A"/>
<path d="M686.753 171.538L748.416 191.897L724.452 199.203L686.753 171.538Z" fill="#1A1A1A"/>
<path d="M734.194 170.564L749.098 125.169V191.215L734.194 170.564Z" stroke="#DED7C4"/>
<path d="M686.753 171.538L748.416 191.897L724.452 199.203L686.753 171.538Z" stroke="#DED7C4"/>
<path d="M749.098 217.42V192.482L710.815 244.793L749.098 217.42Z" fill="#1A1A1A" stroke="#DED7C4"/>
<line y1="-1.5" x2="49.4117" y2="-1.5" transform="matrix(-0.311492 0.950249 0.950249 0.311492 749.488 124)" stroke="#DED7C4" stroke-width="3"/>
<line y1="-1.5" x2="48.9021" y2="-1.5" transform="matrix(-0.999992 0.00398403 0.00398403 0.999992 733.902 170.759)" stroke="#DED7C4" stroke-width="3"/>
<line y1="-1.5" x2="48.7879" y2="-1.5" transform="matrix(-0.806659 -0.591017 -0.591017 0.806659 724.355 199.788)" stroke="#DED7C4" stroke-width="3"/>
<line y1="-1.5" x2="49.5969" y2="-1.5" transform="matrix(-0.310329 0.950629 0.950629 0.310329 724.745 199.593)" stroke="#DED7C4" stroke-width="3"/>
<line y1="-1.5" x2="49.577" y2="-1.5" transform="matrix(-0.813468 0.58161 0.58161 0.813468 749.683 217.712)" stroke="#DED7C4" stroke-width="3"/>
<line y1="-1.5" x2="93.7121" y2="-1.5" transform="matrix(0 -1 -1 0 749.098 217.712)" stroke="#DED7C4" stroke-width="3"/>
<line y1="-1.5" x2="26.6572" y2="-1.5" transform="matrix(0.58469 0.811257 0.811257 -0.58469 734.097 170.369)" stroke="#DED7C4" stroke-width="3"/>
<line y1="-1.5" x2="26.0698" y2="-1.5" transform="matrix(-0.956583 0.291459 0.291459 0.956583 749.488 192.19)" stroke="#DED7C4" stroke-width="3"/>
<line y1="-1.5" x2="67.7095" y2="-1.5" transform="matrix(-0.949543 -0.313637 -0.313637 0.949543 749.293 192.19)" stroke="#DED7C4" stroke-width="3"/>
<line y1="-1.5" x2="67.882" y2="-1.5" transform="matrix(-0.591239 0.806496 0.806496 0.591239 749.488 191.995)" stroke="#DED7C4" stroke-width="3"/>
<path d="M765.806 170.564L750.902 125.169V191.215L765.806 170.564Z" fill="#1A1A1A"/>
<path d="M813.247 171.538L751.584 191.897L775.548 199.203L813.247 171.538Z" fill="#1A1A1A"/>
<path d="M765.806 170.564L750.902 125.169V191.215L765.806 170.564Z" stroke="#DED7C4"/>
<path d="M813.247 171.538L751.584 191.897L775.548 199.203L813.247 171.538Z" stroke="#DED7C4"/>
<path d="M750.902 217.42V192.482L789.185 244.793L750.902 217.42Z" fill="#1A1A1A" stroke="#DED7C4"/>
<line x1="751.937" y1="123.533" x2="767.328" y2="170.486" stroke="#DED7C4" stroke-width="3"/>
<line x1="766.104" y1="169.259" x2="815.006" y2="169.453" stroke="#DED7C4" stroke-width="3"/>
<line x1="774.758" y1="198.578" x2="814.113" y2="169.744" stroke="#DED7C4" stroke-width="3"/>
<line x1="776.681" y1="199.127" x2="792.072" y2="246.276" stroke="#DED7C4" stroke-width="3"/>
<line x1="751.189" y1="216.492" x2="791.519" y2="245.326" stroke="#DED7C4" stroke-width="3"/>
<line x1="749.402" y1="217.712" x2="749.402" y2="124" stroke="#DED7C4" stroke-width="3"/>
<line x1="767.12" y1="171.246" x2="751.534" y2="192.872" stroke="#DED7C4" stroke-width="3"/>
<line x1="750.949" y1="190.755" x2="775.887" y2="198.353" stroke="#DED7C4" stroke-width="3"/>
<line x1="750.236" y1="190.765" x2="814.529" y2="169.529" stroke="#DED7C4" stroke-width="3"/>
<line x1="751.721" y1="191.108" x2="791.856" y2="245.854" stroke="#DED7C4" stroke-width="3"/>
<line x1="0.119767" y1="0.514556" x2="685.12" y2="169.515" stroke="white"/>
<line x1="1500.12" y1="0.485359" x2="809.12" y2="171.485" stroke="white"/>
</svg>
